<?xml version="1.0" standalone="no"?>
<!DOCTYPE svg PUBLIC "-//W3C//DTD SVG 20010904//EN"
 "http://www.w3.org/TR/2001/REC-SVG-20010904/DTD/svg10.dtd">
<svg version="1.0" xmlns="http://www.w3.org/2000/svg"
 width="1280.000000pt" height="984.000000pt" viewBox="0 0 1280.000000 984.000000"
 preserveAspectRatio="xMidYMid meet">
<g transform="translate(0.000000,984.000000) scale(0.100000,-0.100000)"
fill="#000000" stroke="none">
<path d="M4785 9820 c-163 -36 -266 -93 -386 -213 -132 -133 -203 -256 -586
-1022 -195 -390 -357 -712 -360 -715 -3 -3 -496 -7 -1096 -10 -1061 -6 -1095
-7 -1182 -27 -412 -95 -742 -329 -955 -678 -96 -156 -157 -329 -195 -551 l-25
-143 0 -2524 c0 -1563 4 -2544 10 -2578 5 -30 16 -97 25 -149 99 -585 587
-1074 1175 -1174 52 -9 119 -21 149 -26 74 -14 10008 -14 10082 0 30 5 97 17
149 26 577 98 1057 567 1169 1142 43 224 42 153 39 2797 -3 2377 -4 2536 -21
2633 -47 270 -133 473 -288 678 -227 301 -567 502 -944 559 -84 12 -267 15
-1140 15 -572 0 -1045 4 -1051 8 -6 4 -171 327 -367 717 -381 762 -454 890
-584 1021 -121 122 -224 178 -395 214 -89 19 -137 20 -1617 19 -1424 -1 -1531
-2 -1606 -19z m-3149 -2950 c174 -60 302 -209 334 -390 39 -216 -78 -438 -282
-535 -329 -157 -708 84 -708 449 0 148 51 267 154 364 139 129 329 171 502
112z m4959 20 c1070 -77 1992 -694 2460 -1645 161 -327 249 -627 291 -995 22
-197 15 -555 -16 -754 -144 -940 -718 -1743 -1565 -2187 -423 -222 -866 -329
-1365 -329 -281 0 -498 26 -743 90 -809 210 -1490 751 -1883 1495 -146 277
-255 609 -304 931 -28 177 -38 539 -20 710 51 510 207 951 481 1364 591 889
1612 1396 2664 1320z"/>
<path d="M6175 5386 c-628 -105 -1107 -575 -1221 -1197 -24 -130 -24 -381 1
-509 58 -306 189 -555 409 -776 219 -218 442 -339 750 -406 146 -32 426 -32
572 0 307 66 532 188 750 406 219 220 352 471 409 776 25 128 25 379 1 509
-109 596 -556 1055 -1156 1186 -103 22 -408 29 -515 11z"/>
</g>
</svg>
